<svg xmlns="http://www.w3.org/2000/svg" width="37.967" height="38.811" viewBox="0 0 37.967 38.811">
  <g id="LinkedIn" transform="translate(-80.214 0)">
    <g id="LinkedIn-2" data-name="LinkedIn" transform="translate(80.214 0)">
      <path id="Caminho_2376" data-name="Caminho 2376" d="M1072.828,664.578a5.062,5.062,0,1,1-5.062-5.062,5.062,5.062,0,0,1,5.062,5.062" transform="translate(-1062.703 -659.516)" fill="#fff"/>
      <path id="Caminho_2377" data-name="Caminho 2377" d="M1075.028,753.064h-7.683a.377.377,0,0,1-.377-.377V728.13a.377.377,0,0,1,.377-.377h7.683a.377.377,0,0,1,.377.377v24.557a.377.377,0,0,1-.377.377" transform="translate(-1066.124 -714.254)" fill="#fff"/>
      <path id="Caminho_2378" data-name="Caminho 2378" d="M1151.987,733.613v14.343a1.692,1.692,0,0,1-1.687,1.687h-5.062a1.692,1.692,0,0,1-1.687-1.687V736.144a4.219,4.219,0,0,0-8.437,0v11.812a1.692,1.692,0,0,1-1.687,1.687h-5.062a1.693,1.693,0,0,1-1.687-1.687V726.019a1.692,1.692,0,0,1,1.688-1.687h5.062a1.692,1.692,0,0,1,1.687,1.687v1.08a9.592,9.592,0,0,1,7.594-3.611c4.657,0,9.281,3.375,9.281,10.125" transform="translate(-1114.02 -710.832)" fill="#fff"/>
    </g>
  </g>
</svg>
