<svg xmlns="http://www.w3.org/2000/svg" width="33.286" height="29.125" viewBox="0 0 33.286 29.125">
  <g id="content_02" data-name="content 02" transform="translate(-128.357 -227.007)">
    <path id="email_5325783" d="M16.643,13.178,1.985,1.221A3.128,3.128,0,0,1,3.121,1H30.165a3.128,3.128,0,0,1,1.136.221ZM32.882,2.614,17.3,15.327a1.037,1.037,0,0,1-1.315,0L.4,2.614A3.085,3.085,0,0,0,0,4.121V22.844a3.124,3.124,0,0,0,3.121,3.121h14.1a9.207,9.207,0,0,1-.576-3.121,9.322,9.322,0,0,1,16.643-5.81V4.121A3.085,3.085,0,0,0,32.882,2.614Zm.4,20.229A7.281,7.281,0,1,1,26,15.562,7.289,7.289,0,0,1,33.286,22.844Zm-3.944-2.3a1.041,1.041,0,0,0-1.471,0l-2.906,2.906-.824-.824A1.04,1.04,0,0,0,22.67,24.1l1.56,1.56a1.042,1.042,0,0,0,1.471,0l3.641-3.641A1.043,1.043,0,0,0,29.341,20.547Z" transform="translate(128.357 226.007)" fill="#fff"/>
  </g>
</svg>
