<svg xmlns="http://www.w3.org/2000/svg" width="26.053" height="31" viewBox="0 0 26.053 31">
  <g id="content_01" data-name="content 01" transform="translate(-131.974 -223.132)">
    <g id="doc" transform="translate(129.059 222.132)">
      <path id="Caminho_2400" data-name="Caminho 2400" d="M7.022,32H24.86a4.107,4.107,0,0,0,4.108-4.095V5.108A4.118,4.118,0,0,0,24.86,1H12.008A4.1,4.1,0,0,0,9.1,2.214L4.116,7.2a4.053,4.053,0,0,0-1.2,2.893V27.905A4.107,4.107,0,0,0,7.022,32Zm15.486-5.16H18.983a1.292,1.292,0,0,1,0-2.583h3.526a1.292,1.292,0,1,1,0,2.583ZM12.565,7.407h6.755a1.292,1.292,0,0,1,0,2.583H12.565a1.292,1.292,0,0,1,0-2.583ZM9.376,12.744H22.508a1.292,1.292,0,0,1,0,2.583H9.376a1.292,1.292,0,0,1,0-2.583Zm0,5.338h7.1a1.292,1.292,0,0,1,0,2.583h-7.1a1.292,1.292,0,1,1,0-2.583Z" transform="translate(0)" fill="#fff"/>
    </g>
  </g>
</svg>
