<svg xmlns="http://www.w3.org/2000/svg" width="35.333" height="36.175" viewBox="0 0 35.333 36.175">
  <g id="doc_01" data-name="doc 01" transform="translate(-127.333 -221.624)">
    <g id="doc" transform="translate(125.833 220.374)">
      <path id="Caminho_2405" data-name="Caminho 2405" d="M23.39,37.425H6.127A4.624,4.624,0,0,1,1.5,32.8V5.877A4.624,4.624,0,0,1,6.127,1.25H22.209a2.945,2.945,0,0,1,2.179.964l7.474,8.221a2.947,2.947,0,0,1,.766,1.982v8.112a9.675,9.675,0,0,0-9.237,16.9ZM6.968,29.012h8.413a1.262,1.262,0,0,0,0-2.524H6.968a1.262,1.262,0,1,0,0,2.524ZM22.111,3.526v7.4a1.683,1.683,0,0,0,1.683,1.683h6.6a1.67,1.67,0,0,0-.306-.481L22.612,3.9a1.731,1.731,0,0,0-.5-.377ZM6.968,15.552h8.413a1.262,1.262,0,0,0,0-2.524H6.968a1.262,1.262,0,1,0,0,2.524Zm0,6.73H18.746a1.262,1.262,0,0,0,0-2.524H6.968a1.262,1.262,0,1,0,0,2.524Z" transform="translate(0)" fill="#fff" fill-rule="evenodd"/>
      <path id="Caminho_2406" data-name="Caminho 2406" d="M20.992,13.25A7.992,7.992,0,1,1,13,21.242,7.995,7.995,0,0,1,20.992,13.25Zm-3.92,8.884,2.019,2.019a1.26,1.26,0,0,0,1.783,0l4.038-4.038a1.261,1.261,0,0,0-1.783-1.783l-3.146,3.145L18.855,20.35a1.261,1.261,0,0,0-1.783,1.783Z" transform="translate(7.849 8.19)" fill="#fff" fill-rule="evenodd"/>
    </g>
  </g>
</svg>
