<svg xmlns="http://www.w3.org/2000/svg" width="25.515" height="48.33" viewBox="0 0 25.515 48.33">
  <g id="Facebook" transform="translate(-86.44 0)">
    <path id="facebook-2" data-name="facebook" d="M145.121,89.3l-.612,4.914a1.639,1.639,0,0,1-1.623,1.439h-7.96V116.2q-1.26.114-2.55.114a28.42,28.42,0,0,1-5.615-.558v-20.1h-6.122a1.025,1.025,0,0,1-1.02-1.024V88.478a1.025,1.025,0,0,1,1.02-1.024h6.122V78.23a10.226,10.226,0,0,1,10.206-10.247h7.143a1.025,1.025,0,0,1,1.021,1.024v6.149a1.025,1.025,0,0,1-1.021,1.024h-5.1a4.09,4.09,0,0,0-4.081,4.1v7.173H143.5a1.64,1.64,0,0,1,1.623,1.845" transform="translate(-33.179 -67.983)" fill="#fff"/>
  </g>
</svg>
