<svg xmlns="http://www.w3.org/2000/svg" width="44.534" height="44.534" viewBox="0 0 44.534 44.534">
  <g id="Instagram" transform="translate(-76.93 0)">
    <g id="Instagram-2" data-name="Instagram" transform="translate(76.93)">
      <path id="Caminho_2381" data-name="Caminho 2381" d="M1088.234,94.461H1065.2a10.751,10.751,0,0,0-10.75,10.75v23.035a10.751,10.751,0,0,0,10.75,10.749h23.035a10.751,10.751,0,0,0,10.75-10.749V105.211a10.752,10.752,0,0,0-10.75-10.75m6.911,33.017a7.681,7.681,0,0,1-7.678,7.678h-21.5a7.681,7.681,0,0,1-7.678-7.678v-21.5a7.681,7.681,0,0,1,7.678-7.678h21.5a7.681,7.681,0,0,1,7.678,7.678Z" transform="translate(-1054.45 -94.461)" fill="#fff"/>
      <path id="Caminho_2382" data-name="Caminho 2382" d="M1116.378,144.771a11.517,11.517,0,1,0,11.517,11.517,11.522,11.522,0,0,0-11.517-11.517m0,19.2a7.678,7.678,0,1,1,7.678-7.678,7.691,7.691,0,0,1-7.678,7.678" transform="translate(-1094.09 -134.021)" fill="#fff"/>
      <path id="Caminho_2383" data-name="Caminho 2383" d="M1207.783,135a2.3,2.3,0,1,1,2.3-2.3,2.306,2.306,0,0,1-2.3,2.3" transform="translate(-1173.21 -122.719)" fill="#fff"/>
    </g>
  </g>
</svg>
