<svg xmlns="http://www.w3.org/2000/svg" width="34.668" height="34.668" viewBox="0 0 34.668 34.668">
  <g id="note" transform="translate(-127.666 -210.85)">
    <g id="note-2" data-name="note" transform="translate(125.666 208.85)">
      <path id="Caminho_2305" data-name="Caminho 2305" d="M2,5.467A3.467,3.467,0,0,1,5.467,2H33.2a3.467,3.467,0,0,1,3.467,3.467v18.49H27.423a3.467,3.467,0,0,0-3.467,3.467v9.245H5.467A3.467,3.467,0,0,1,2,33.2ZM7.778,18.178a1.156,1.156,0,0,0,1.156,1.156h10.4a1.156,1.156,0,1,0,0-2.311H8.934A1.156,1.156,0,0,0,7.778,18.178Zm1.156-4.622a1.156,1.156,0,0,1,0-2.311h20.8a1.156,1.156,0,1,1,0,2.311Z" fill="#fff" fill-rule="evenodd"/>
      <path id="Caminho_2306" data-name="Caminho 2306" d="M44,53.682a3.461,3.461,0,0,0,.338-.3l9.046-9.046a3.461,3.461,0,0,0,.3-.338H45.156A1.156,1.156,0,0,0,44,45.156Z" transform="translate(-17.732 -17.732)" fill="#fff"/>
    </g>
  </g>
</svg>
