<svg xmlns="http://www.w3.org/2000/svg" width="30.844" height="41.125" viewBox="0 0 30.844 41.125">
  <g id="pdf" transform="translate(-129.578 -206.218)">
    <g id="pdf-2" data-name="pdf" transform="translate(126.578 206.218)">
      <path id="Caminho_2287" data-name="Caminho 2287" d="M12.714,10.714C12.714,9,12.463,9,11.857,9,11.557,9,11,9,11,10.8a5.265,5.265,0,0,0,1.032,2.594,13.737,13.737,0,0,0,.682-2.676Z" transform="translate(5.708 6.422)" fill="#fff"/>
      <path id="Caminho_2288" data-name="Caminho 2288" d="M12.4,13.651c-.255.771-.541,1.628-.859,2.582q-.075.228-.156.452c1.074-.341,2.2-.626,3.254-.856-.53-.453-.929-.814-1.089-.975Q12.932,14.238,12.4,13.651Z" transform="translate(5.982 9.741)" fill="#fff"/>
      <path id="Caminho_2289" data-name="Caminho 2289" d="M7,19.862a1.354,1.354,0,0,0,.857.275c.486,0,1.759-.865,3.046-2.731l-.339.16C8.811,18.4,7,19.255,7,19.862Z" transform="translate(2.854 12.42)" fill="#fff"/>
      <path id="Caminho_2290" data-name="Caminho 2290" d="M33.591,8.818,25.026.252A.854.854,0,0,0,24.419,0H6.427A3.43,3.43,0,0,0,3,3.427V37.7a3.43,3.43,0,0,0,3.427,3.427H30.416A3.43,3.43,0,0,0,33.844,37.7V9.424a.854.854,0,0,0-.252-.607ZM26.133,29.13a9.828,9.828,0,0,1-3.785-2.158,34.087,34.087,0,0,0-5.881,1.586c-1.757,3.584-4.162,5.712-5.756,5.712-1.236,0-2.57-.76-2.57-1.989,0-1.692,1.807-2.549,4.543-3.844.6-.284,1.247-.591,1.928-.931.189-.095.385-.186.587-.275.248-.554.482-1.153.7-1.8.448-1.348.848-2.544,1.187-3.58a8.215,8.215,0,0,1-2.088-4.634c0-2.9,1.4-3.509,2.57-3.509,1.543,0,2.57.583,2.57,3.427A19.184,19.184,0,0,1,19,21.5c.505.6,1.087,1.235,1.739,1.888a24.827,24.827,0,0,0,2.049,1.768,20.268,20.268,0,0,1,2.486-.305c1.113,0,3.427,0,3.427,2.026C28.7,27.9,28.257,29.13,26.133,29.13Zm.857-20.562a1.716,1.716,0,0,1-1.714-1.714V2.925l5.643,5.643Z" transform="translate(0 0)" fill="#fff"/>
      <path id="Caminho_2291" data-name="Caminho 2291" d="M16.217,15.5c-.1,0-.279.013-.52.04a6.315,6.315,0,0,0,1.439.822c.795-.005.795-.165.795-.55C17.841,15.624,17.483,15.5,16.217,15.5Z" transform="translate(9.059 11.06)" fill="#fff"/>
    </g>
  </g>
</svg>
