<svg xmlns="http://www.w3.org/2000/svg" width="33" height="36.867" viewBox="0 0 33 36.867">
  <g id="person_01" data-name="person 01" transform="translate(-128.5 -218.012)">
    <g id="user" transform="translate(104.335 218.012)" style="isolation: isolate">
      <g id="Grupo_26780" data-name="Grupo 26780" transform="translate(24.165)">
        <g id="Grupo_26779" data-name="Grupo 26779" transform="translate(0)">
          <path id="Caminho_2401" data-name="Caminho 2401" d="M120.364,19.144a9.572,9.572,0,1,0-9.572-9.572A9.6,9.6,0,0,0,120.364,19.144Z" transform="translate(-103.861)" fill="#fff"/>
          <path id="Caminho_2402" data-name="Caminho 2402" d="M57.094,254.805a8.923,8.923,0,0,0-.961-1.756,11.9,11.9,0,0,0-8.234-5.183,1.762,1.762,0,0,0-1.212.293,10.2,10.2,0,0,1-12.038,0,1.568,1.568,0,0,0-1.212-.293,11.812,11.812,0,0,0-8.234,5.183,10.289,10.289,0,0,0-.961,1.756.889.889,0,0,0,.042.794,16.674,16.674,0,0,0,1.129,1.672,15.885,15.885,0,0,0,1.923,2.173,25.05,25.05,0,0,0,1.923,1.672,19.061,19.061,0,0,0,22.739,0,18.377,18.377,0,0,0,1.923-1.672,19.3,19.3,0,0,0,1.923-2.173,14.654,14.654,0,0,0,1.129-1.672A.713.713,0,0,0,57.094,254.805Z" transform="translate(-24.165 -228.012)" fill="#fff"/>
        </g>
      </g>
    </g>
  </g>
</svg>
