<svg xmlns="http://www.w3.org/2000/svg" width="24.034" height="42.442" viewBox="0 0 24.034 42.442">
  <g id="phone" transform="translate(-132.983 -207.219)">
    <g id="cell-phone_191" transform="translate(127.032 207.219)">
      <path id="Caminho_2276" data-name="Caminho 2276" d="M26.9,0H9.04A3.089,3.089,0,0,0,5.951,3.092V39.353A3.087,3.087,0,0,0,9.04,42.442H26.9a3.089,3.089,0,0,0,3.089-3.089V3.092A3.091,3.091,0,0,0,26.9,0ZM13.562,1.878h8.816c.223,0,.4.333.4.744s-.181.745-.4.745H13.562c-.224,0-.4-.334-.4-.745S13.338,1.878,13.562,1.878ZM17.97,39.391a1.972,1.972,0,1,1,1.969-1.973A1.975,1.975,0,0,1,17.97,39.391Zm9.7-6.757H8.266V5.217H27.672V32.633Z" fill="#fff"/>
    </g>
  </g>
</svg>
