<svg xmlns="http://www.w3.org/2000/svg" width="32.838" height="39.68" viewBox="0 0 32.838 39.68">
  <g id="Tiktok" transform="translate(-82.778 0)">
    <path id="Tiktok-2" data-name="Tiktok" d="M607.423,1243.481v-17.1s1.928,3.214,8.9,3.411a.666.666,0,0,0,.679-.667v-4.834a.673.673,0,0,0-.647-.665,8.516,8.516,0,0,1-8.227-8.255.679.679,0,0,0-.685-.62h-5.512a.665.665,0,0,0-.665.665V1242.6a5.6,5.6,0,0,1-5.207,5.662,5.474,5.474,0,0,1-1.052-10.885,5.606,5.606,0,0,1,1.4-.021.668.668,0,0,0,.754-.657v-4.846a.66.66,0,0,0-.606-.664,11.968,11.968,0,0,0-2.12.053,11.631,11.631,0,1,0,12.988,11.553" transform="translate(-501.385 -1214.747)" fill="#fff"/>
  </g>
</svg>
