<svg xmlns="http://www.w3.org/2000/svg" width="45.575" height="33.002" viewBox="0 0 45.575 33.002">
  <g id="Youtube" transform="translate(-76.41 0)">
    <path id="Caminho_2385" data-name="Caminho 2385" d="M1561.972,114.493h-33.566a6.006,6.006,0,0,0-6.005,6v20.994a6,6,0,0,0,6.005,6h33.566a6,6,0,0,0,6-6V120.5a6.005,6.005,0,0,0-6-6m-11.392,17.95-9.333,4.664a1.619,1.619,0,0,1-2.345-1.447v-9.33a1.621,1.621,0,0,1,2.345-1.449l9.333,4.666a1.619,1.619,0,0,1,0,2.9" transform="translate(-1445.992 -114.493)" fill="#fff"/>
  </g>
</svg>
