<svg xmlns="http://www.w3.org/2000/svg" width="39.333" height="39.333" viewBox="0 0 39.333 39.333">
  <g id="person_02" data-name="person 02" transform="translate(-125.333 -216.798)">
    <g id="hi" transform="translate(124.333 215.798)">
      <path id="Caminho_2403" data-name="Caminho 2403" d="M1,5.657a4.657,4.657,0,0,1,9.31-.194l.321,7.695A11.8,11.8,0,0,0,13.774,20.7l4.453,4.8a1.312,1.312,0,0,0,.961.419H29.582A10.751,10.751,0,0,1,40.333,36.662a3.671,3.671,0,0,1-3.671,3.671H15.422A3.933,3.933,0,0,1,11.489,36.4V33.387a1.311,1.311,0,0,0-.287-.819L5.31,25.2A19.667,19.667,0,0,1,1,12.917Z" transform="translate(0 0)" fill="#fff"/>
      <path id="Caminho_2404" data-name="Caminho 2404" d="M14,13.178a9.178,9.178,0,1,1,9.178,9.178A9.178,9.178,0,0,1,14,13.178Z" transform="translate(4.044 0.933)" fill="#fff"/>
    </g>
  </g>
</svg>
