<?xml version="1.0" encoding="UTF-8"?> <svg xmlns="http://www.w3.org/2000/svg" xmlns:xlink="http://www.w3.org/1999/xlink" id="Group_26700" data-name="Group 26700" width="50" height="42.22" viewBox="0 0 50 42.22"><defs><clipPath id="clip-path"><rect id="Rectangle_1263" data-name="Rectangle 1263" width="50" height="42.22" fill="#fff"></rect></clipPath><linearGradient id="linear-gradient" x1="0.623" x2="0.27" y2="1" gradientUnits="objectBoundingBox"><stop offset="0" stop-color="#40b4e5"></stop><stop offset="1" stop-color="#c2f"></stop></linearGradient></defs><g id="Group_26699" data-name="Group 26699" clip-path="url(#clip-path)"><path id="Path_2131" data-name="Path 2131" d="M25.566,178.178h6.871V163.1l-8.3,8.27v5.389a1.424,1.424,0,0,0,1.424,1.424" transform="translate(-20.125 -135.957)" fill="#fff"></path><path id="Path_2132" data-name="Path 2132" d="M96.5,134.727v18.828h8.3v-12.9l-7.125-7.1Z" transform="translate(-80.445 -111.335)" fill="#fff"></path><path id="Path_2133" data-name="Path 2133" d="M169.019,156.29h8.3V136.839l-8.3,8.3Z" transform="translate(-140.896 -114.07)" fill="#fff"></path><path id="Path_2134" data-name="Path 2134" d="M245.462,89.8l-4.083,4.083v23.2h6.871a1.424,1.424,0,0,0,1.424-1.425V94.009l-3.12-3.121Z" transform="translate(-201.216 -74.855)" fill="#fff"></path><path id="Path_2135" data-name="Path 2135" d="M48.469,10.934,49.985,1.4A1.209,1.209,0,0,0,48.6.015L39.067,1.532a1.209,1.209,0,0,0-.665,2.05l2.17,2.17L27.1,19.219l-8.872-8.872a1.425,1.425,0,0,0-2.014,0l-15.8,15.8a1.424,1.424,0,0,0,0,2.014l1.663,1.663a1.424,1.424,0,0,0,2.014,0l13.13-13.13L26.1,25.566a1.424,1.424,0,0,0,2.014,0L44.249,9.429,46.419,11.6a1.209,1.209,0,0,0,2.05-.665" transform="translate(-0.001 0.001)" fill="url(#linear-gradient)"></path></g></svg> 