<?xml version="1.0" encoding="UTF-8"?> <svg xmlns="http://www.w3.org/2000/svg" xmlns:xlink="http://www.w3.org/1999/xlink" width="50" height="50" viewBox="0 0 50 50"><defs><clipPath id="clip-path"><rect id="Rectangle_1267" data-name="Rectangle 1267" width="50" height="50" transform="translate(0 0)" fill="#fff"></rect></clipPath><linearGradient id="linear-gradient" x1="0.588" y1="0.128" x2="0.396" y2="0.924" gradientUnits="objectBoundingBox"><stop offset="0" stop-color="#40b4e5"></stop><stop offset="1" stop-color="#c2f"></stop></linearGradient></defs><g id="Group_26709" data-name="Group 26709" transform="translate(0 -0.005)"><g id="Group_26708" data-name="Group 26708" transform="translate(0 0.005)" clip-path="url(#clip-path)"><path id="Path_2161" data-name="Path 2161" d="M50,25c0,2.064-4.094,3.563-4.6,5.467-.527,1.97,2.254,5.311,1.256,7.036-1.012,1.749-5.305,1.005-6.725,2.425s-.676,5.713-2.425,6.725c-1.725,1-5.066-1.782-7.036-1.256-1.9.509-3.4,4.6-5.467,4.6s-3.563-4.094-5.467-4.6c-1.97-.527-5.311,2.254-7.036,1.256-1.749-1.012-1.005-5.305-2.425-6.725s-5.713-.676-6.725-2.425c-1-1.725,1.782-5.066,1.256-7.036C4.094,28.567,0,27.068,0,25s4.094-3.563,4.6-5.467c.527-1.97-2.254-5.311-1.256-7.036,1.012-1.749,5.305-1.005,6.725-2.425s.676-5.713,2.425-6.725c1.725-1,5.066,1.782,7.036,1.256C21.437,4.1,22.936,0,25,0s3.563,4.094,5.467,4.6c1.97.527,5.311-2.254,7.036-1.256,1.75,1.012,1.005,5.305,2.425,6.725s5.713.676,6.725,2.425c1,1.725-1.782,5.066-1.256,7.036.509,1.9,4.6,3.4,4.6,5.467" transform="translate(0 -0.004)" fill="#1ea1f1"></path><path id="Path_2162" data-name="Path 2162" d="M50,25c0,2.064-4.094,3.563-4.6,5.467-.527,1.97,2.254,5.311,1.256,7.036-1.012,1.749-5.305,1.005-6.725,2.425s-.676,5.713-2.425,6.725c-1.725,1-5.066-1.782-7.036-1.256-1.9.509-3.4,4.6-5.467,4.6s-3.563-4.094-5.467-4.6c-1.97-.527-5.311,2.254-7.036,1.256-1.749-1.012-1.005-5.305-2.425-6.725s-5.713-.676-6.725-2.425c-1-1.725,1.782-5.066,1.256-7.036C4.094,28.567,0,27.068,0,25s4.094-3.563,4.6-5.467c.527-1.97-2.254-5.311-1.256-7.036,1.012-1.749,5.305-1.005,6.725-2.425s.676-5.713,2.425-6.725c1.725-1,5.066,1.782,7.036,1.256C21.437,4.1,22.936,0,25,0s3.563,4.094,5.467,4.6c1.97.527,5.311-2.254,7.036-1.256,1.75,1.012,1.005,5.305,2.425,6.725s5.713.676,6.725,2.425c1,1.725-1.782,5.066-1.256,7.036.509,1.9,4.6,3.4,4.6,5.467" transform="translate(0 -0.004)" fill="#fff"></path><path id="Path_2163" data-name="Path 2163" d="M604.015,676.553l-6.533-6.636a1.547,1.547,0,0,1,0-2.164l1.848-1.877a1.489,1.489,0,0,1,2.13,0l3.61,3.667,12.515-12.8a1.489,1.489,0,0,1,2.13-.007l1.854,1.87a1.547,1.547,0,0,1,.007,2.164L606.149,676.55a1.489,1.489,0,0,1-2.133,0" transform="translate(-584.527 -641.647)" stroke="#191e24" stroke-width="3" fill="url(#linear-gradient)"></path></g></g></svg> 