<?xml version="1.0" encoding="UTF-8"?> <svg xmlns="http://www.w3.org/2000/svg" xmlns:xlink="http://www.w3.org/1999/xlink" id="Group_26705" data-name="Group 26705" width="50" height="49.527" viewBox="0 0 50 49.527"><defs><clipPath id="clip-path"><rect id="Rectangle_1265" data-name="Rectangle 1265" width="50" height="49.527" fill="#fff"></rect></clipPath><linearGradient id="linear-gradient" x1="0.599" x2="0.333" y2="1" gradientUnits="objectBoundingBox"><stop offset="0" stop-color="#40b4e5"></stop><stop offset="1" stop-color="#c2f"></stop></linearGradient></defs><g id="Group_26704" data-name="Group 26704" clip-path="url(#clip-path)"><path id="Path_2148" data-name="Path 2148" d="M4.211,34.539A1.137,1.137,0,0,1,3.07,33.4V9.691H41.655v5.3h3.057V3.311A3.3,3.3,0,0,0,41.414,0H3.311A3.313,3.313,0,0,0,0,3.311V33.4a4.217,4.217,0,0,0,4.211,4.211H19.268a14.365,14.365,0,0,1-.672-3.07ZM16.439,3.057a1.769,1.769,0,1,1,0,3.539,1.769,1.769,0,0,1,0-3.539m-5.365,0A1.769,1.769,0,1,1,9.3,4.833a1.77,1.77,0,0,1,1.776-1.776m-5.366,0A1.769,1.769,0,1,1,3.932,4.833,1.778,1.778,0,0,1,5.708,3.057" fill="#fff"></path><path id="Path_2149" data-name="Path 2149" d="M141.8,139.18a1.608,1.608,0,0,1-1.133,2.741,1.629,1.629,0,0,1-1.133-.475l-7-7a11.342,11.342,0,0,1-18.166-9.079,11.355,11.355,0,0,1,16.722-10.013l-2.36,2.352a8.1,8.1,0,0,0-3.009-.571,8.236,8.236,0,1,0,8.2,8.984l2.957-2.957a11.62,11.62,0,0,1,.216,2.2,11.264,11.264,0,0,1-2.291,6.814Z" transform="translate(-92.68 -92.394)" fill="#fff"></path><path id="Path_2150" data-name="Path 2150" d="M162.195,97.413v6.9a1.6,1.6,0,1,1-3.208,0v-3.026L146.994,113.28a1.592,1.592,0,0,1-2.265,0l-2.041-2.032-3.13,3.13a6.824,6.824,0,0,1-1.115-3.424l3.113-3.113a1.607,1.607,0,0,1,2.265,0l2.041,2.04,10.86-10.86h-3.035a1.6,1.6,0,0,1,0-3.208H160.6a1.6,1.6,0,0,1,1.6,1.6" transform="translate(-112.195 -77.648)" fill="url(#linear-gradient)"></path><path id="Path_2151" data-name="Path 2151" d="M70.1,75.016H41.248a.134.134,0,0,1-.134-.134V72.319a.134.134,0,0,1,.134-.134H70.1a.134.134,0,0,1,.134.134v2.562a.134.134,0,0,1-.134.134" transform="translate(-33.319 -58.499)" fill="#fff"></path><path id="Path_2152" data-name="Path 2152" d="M54.493,110.773H41.248a.134.134,0,0,1-.134-.134v-2.562a.134.134,0,0,1,.134-.134H54.493a.134.134,0,0,1,.134.134v2.562a.134.134,0,0,1-.134.134" transform="translate(-33.319 -87.477)" fill="#fff"></path><path id="Path_2153" data-name="Path 2153" d="M51.4,146.53H41.248a.134.134,0,0,1-.134-.134v-2.562a.134.134,0,0,1,.134-.134H51.4a.134.134,0,0,1,.134.134V146.4a.134.134,0,0,1-.134.134" transform="translate(-33.319 -116.454)" fill="#fff"></path></g></svg> 