<?xml version="1.0" encoding="UTF-8"?> <svg xmlns="http://www.w3.org/2000/svg" xmlns:xlink="http://www.w3.org/1999/xlink" id="Group_26707" data-name="Group 26707" width="50" height="52.881" viewBox="0 0 50 52.881"><defs><clipPath id="clip-path"><rect id="Rectangle_1266" data-name="Rectangle 1266" width="50" height="52.881" fill="#fff"></rect></clipPath><linearGradient id="linear-gradient" x1="0.313" y1="0.181" x2="0.698" y2="0.756" gradientUnits="objectBoundingBox"><stop offset="0" stop-color="#40b4e5"></stop><stop offset="1" stop-color="#c2f"></stop></linearGradient></defs><g id="Group_26706" data-name="Group 26706" clip-path="url(#clip-path)"><path id="Path_2154" data-name="Path 2154" d="M17.033,68.744A14.928,14.928,0,1,1,25.4,40.625l2.674-2.674a18.568,18.568,0,1,0-10.334,34.5,6.148,6.148,0,0,1-.71-2.9Z" transform="translate(0 -28.483)" fill="#fff"></path><path id="Path_2155" data-name="Path 2155" d="M168.265,93.643l1.142-.794c.028-.4.042-.794.042-1.2a18.335,18.335,0,0,0-2.618-9.484l-2.688,2.674a14.77,14.77,0,0,1,1.658,6.81,15.008,15.008,0,0,1-.39,3.385,9.69,9.69,0,0,0,2.855-1.393" transform="translate(-132.318 -66.235)" fill="#fff"></path><path id="Path_2156" data-name="Path 2156" d="M47.65,75.1a6.2,6.2,0,0,1,1.337.139L51.925,72.3a11.283,11.283,0,0,0-4.275-.836A11.569,11.569,0,0,0,46.1,94.5V93.161a6.224,6.224,0,0,1,.432-2.284A7.928,7.928,0,0,1,47.65,75.1" transform="translate(-29.07 -57.607)" fill="#fff"></path><path id="Path_2157" data-name="Path 2157" d="M135.585,117.126a11.543,11.543,0,0,0,.641-3.817,11.247,11.247,0,0,0-.836-4.275l-2.939,2.924a6.356,6.356,0,0,1,.125,1.351,7.887,7.887,0,0,1-.975,3.817Z" transform="translate(-106.087 -87.895)" fill="#fff"></path><path id="Path_2158" data-name="Path 2158" d="M102.09,5.832a1.365,1.365,0,0,0-1.262-.843H97.2V1.365A1.366,1.366,0,0,0,94.873.4L91.131,4.143a1.362,1.362,0,0,0-.4.966V8.887L78.439,21.178a4.516,4.516,0,0,0-1.669-.325,4.569,4.569,0,1,0,4.569,4.57,4.525,4.525,0,0,0-.326-1.667L93.306,11.463h3.78a1.361,1.361,0,0,0,.965-.4l3.742-3.742a1.367,1.367,0,0,0,.3-1.488" transform="translate(-58.201 0)" fill="#fff"></path><path id="Union_8" data-name="Union 8" d="M-1097.883-292.114a1.031,1.031,0,0,1-1.017-.864l-1.379-7.827h-1.615a3.121,3.121,0,0,1-3.106-3.12v-5.515a3.115,3.115,0,0,1,3.12-3.12h6.838a13.231,13.231,0,0,0,7.591-2.395l1.866-1.309V-297.1l-1.866-1.31a13.231,13.231,0,0,0-7.591-2.395l1.323,7.479a1.038,1.038,0,0,1-1.031,1.212Zm16.434-2.089-1.225-.864v-23.246l1.225-.863a1.557,1.557,0,0,1,2.452,1.267v7.215a4.023,4.023,0,0,1,3.76,4.011,4.042,4.042,0,0,1-3.76,4.01v7.2a1.556,1.556,0,0,1-1.562,1.553A1.538,1.538,0,0,1-1081.449-294.2Z" transform="translate(1125.237 344.995)" stroke="rgba(0,0,0,0)" stroke-width="1" fill="url(#linear-gradient)"></path></g></svg> 