<?xml version="1.0" encoding="UTF-8"?> <svg xmlns="http://www.w3.org/2000/svg" xmlns:xlink="http://www.w3.org/1999/xlink" id="Group_26703" data-name="Group 26703" width="50" height="49.396" viewBox="0 0 50 49.396"><defs><clipPath id="clip-path"><rect id="Rectangle_1254" data-name="Rectangle 1254" width="50" height="49.397" fill="#fff"></rect></clipPath><linearGradient id="linear-gradient" x1="0.707" y1="0.088" x2="0.314" y2="0.839" gradientUnits="objectBoundingBox"><stop offset="0" stop-color="#40b4e5"></stop><stop offset="1" stop-color="#c2f"></stop></linearGradient></defs><g id="Group_26684" data-name="Group 26684" clip-path="url(#clip-path)"><path id="Path_2101" data-name="Path 2101" d="M25.485,40.427A13.318,13.318,0,0,1,45.192,30.9l3.366-3.366a17.9,17.9,0,0,0-27.69,17.511Z" transform="translate(-16.364 -19.43)" fill="#fff"></path><path id="Path_2102" data-name="Path 2102" d="M81.458,109.095a17.766,17.766,0,0,0,3.429-14.3l-4.358,4.358A13.316,13.316,0,0,1,60.1,109.409l-3.33,3.33a17.86,17.86,0,0,0,21.416-.367l11.391,11.391a2.317,2.317,0,0,0,3.277-3.277Z" transform="translate(-44.936 -75.043)" fill="#fff"></path><path id="Path_2103" data-name="Path 2103" d="M47.684,0H36.605a2.315,2.315,0,1,0,0,4.631H42.1L24.031,22.693,20.58,19.24a2.324,2.324,0,0,0-3.277,0L.677,35.866a2.317,2.317,0,0,0,3.277,3.277l14.988-14.99,3.451,3.453a2.322,2.322,0,0,0,3.275,0l19.7-19.7V13.4A2.315,2.315,0,1,0,50,13.4V2.315A2.316,2.316,0,0,0,47.684,0" transform="translate(0)" fill="url(#linear-gradient)"></path></g></svg> 