<?xml version="1.0" encoding="UTF-8"?> <svg xmlns="http://www.w3.org/2000/svg" xmlns:xlink="http://www.w3.org/1999/xlink" width="50" height="47.763" viewBox="0 0 50 47.763"><defs><linearGradient id="linear-gradient" x1="0.185" x2="0.834" y2="1" gradientUnits="objectBoundingBox"><stop offset="0" stop-color="#40b4e5"></stop><stop offset="1" stop-color="#c2f"></stop></linearGradient></defs><g id="Group_26693" data-name="Group 26693" transform="translate(0 -17.831)"><g id="Group_26694" data-name="Group 26694"><path id="Path_2114" data-name="Path 2114" d="M45.958,145.568H4.043A4.042,4.042,0,0,0,0,149.61v6.913a4.043,4.043,0,0,0,4.043,4.043H23.583v6.215a4.484,4.484,0,1,0,2.834,0v-6.215H45.958A4.042,4.042,0,0,0,50,156.523V149.61a4.042,4.042,0,0,0-4.042-4.042M8.941,154.484H7.153a1.417,1.417,0,1,1,0-2.834H8.941a1.417,1.417,0,0,1,0,2.834m6.581,0H13.734a1.417,1.417,0,0,1,0-2.834h1.789a1.417,1.417,0,0,1,0,2.834m27.325,0H20.315a1.417,1.417,0,1,1,0-2.834H42.847a1.417,1.417,0,1,1,0,2.834" transform="translate(0 -109.905)" fill="#fff"></path><path id="Path_2115" data-name="Path 2115" d="M45.958,72.784H4.043A4.042,4.042,0,0,0,0,76.826v6.913a4.043,4.043,0,0,0,4.043,4.043H45.958A4.042,4.042,0,0,0,50,83.739V76.826a4.042,4.042,0,0,0-4.042-4.042M8.941,81.7H7.153a1.417,1.417,0,1,1,0-2.834H8.941a1.417,1.417,0,0,1,0,2.834m6.581,0H13.734a1.417,1.417,0,0,1,0-2.834h1.789a1.417,1.417,0,0,1,0,2.834m27.325,0H20.315a1.417,1.417,0,1,1,0-2.834H42.847a1.417,1.417,0,1,1,0,2.834" transform="translate(0 -54.953)" fill="url(#linear-gradient)"></path><path id="Path_2117" data-name="Path 2117" d="M27.025,243.669a1.417,1.417,0,1,0,0,2.834H38.134a6,6,0,0,1,0-2.834Z" transform="translate(-19.334 -183.973)" fill="#fff"></path><path id="Path_2118" data-name="Path 2118" d="M138.5,243.669H127.4a6.337,6.337,0,0,1,0,2.834h11.1a1.417,1.417,0,0,0,0-2.834" transform="translate(-96.19 -183.973)" fill="#fff"></path></g></g></svg> 