<?xml version="1.0" encoding="UTF-8"?> <svg xmlns="http://www.w3.org/2000/svg" xmlns:xlink="http://www.w3.org/1999/xlink" id="Group_26695" data-name="Group 26695" width="50" height="54.007" viewBox="0 0 50 54.007"><defs><clipPath id="clip-path"><rect id="Rectangle_1260" data-name="Rectangle 1260" width="50" height="54.007" fill="#fff"></rect></clipPath><linearGradient id="linear-gradient" x1="0.626" y1="0.079" x2="0.276" y2="1" gradientUnits="objectBoundingBox"><stop offset="0" stop-color="#40b4e5"></stop><stop offset="1" stop-color="#c2f"></stop></linearGradient></defs><g id="Group_26695-2" data-name="Group 26695" clip-path="url(#clip-path)"><path id="Path_2119" data-name="Path 2119" d="M36.364,11.021H26.847a1.513,1.513,0,0,1-1.516-1.516V0H2.811A2.812,2.812,0,0,0,0,2.811V43.84a2.812,2.812,0,0,0,2.811,2.81H23.476l.257-1.493a4.047,4.047,0,0,1,.782-1.808L36.364,27.885ZM7.907,7.989H18.182a1.516,1.516,0,0,1,0,3.032H7.907a1.516,1.516,0,0,1,0-3.032M21.354,38.673H7.907a1.516,1.516,0,0,1,0-3.032H21.354a1.516,1.516,0,0,1,0,3.032m7.1-9.225H7.907a1.516,1.516,0,1,1,0-3.032H28.456a1.516,1.516,0,1,1,0,3.032m0-9.213H7.907a1.516,1.516,0,0,1,0-3.032H28.456a1.516,1.516,0,0,1,0,3.032" fill="#fff"></path><path id="Path_2120" data-name="Path 2120" d="M137.131,4.227v7.114h7.1Z" transform="translate(-108.756 -3.352)" fill="#fff"></path><path id="Union_7" data-name="Union 7" d="M-1458.589-292.611a1.056,1.056,0,0,1-.4-1.011l1.192-7.116a1.071,1.071,0,0,1,.2-.468l.52-.679,7.061,5.446-.517.674a1.058,1.058,0,0,1-.406.321l-6.579,2.96a1.059,1.059,0,0,1-.433.093A1.051,1.051,0,0,1-1458.589-292.611Zm3.362-11.682,13.062-17.051a2.809,2.809,0,0,1,1.876-1.083,2.8,2.8,0,0,1,2.091.563l2.589,2a2.828,2.828,0,0,1,.517,3.954l-13.073,17.065Z" transform="translate(1484.512 346.398)" stroke="rgba(0,0,0,0)" stroke-width="1" fill="url(#linear-gradient)"></path></g></svg> 