<?xml version="1.0" encoding="UTF-8"?> <svg xmlns="http://www.w3.org/2000/svg" xmlns:xlink="http://www.w3.org/1999/xlink" id="Group_26659" data-name="Group 26659" width="50" height="50" viewBox="0 0 50 50"><defs><linearGradient id="linear-gradient" x1="0.218" y1="0.088" x2="0.761" y2="0.945" gradientUnits="objectBoundingBox"><stop offset="0" stop-color="#40b4e5"></stop><stop offset="1" stop-color="#c2f"></stop></linearGradient></defs><g id="Group_26660" data-name="Group 26660"><path id="Path_2041" data-name="Path 2041" d="M85.33,125.775a7.557,7.557,0,1,1-5.6-7.3l3.968-4.019a12.78,12.78,0,1,0,5.3,5.22l-3.986,3.934a7.524,7.524,0,0,1,.317,2.162" transform="translate(-56.363 -97.478)" fill="#fff"></path><path id="Path_2042" data-name="Path 2042" d="M37.414,63.093h-.093l-1.231-.027A16.66,16.66,0,0,1,37.462,69.7,16.348,16.348,0,0,1,21.291,86.187a16.487,16.487,0,0,1,0-32.967,15.819,15.819,0,0,1,6.7,1.484l-.056-1.2a4.377,4.377,0,0,1,1.314-3.344l.417-.4A20.827,20.827,0,0,0,21.291,48a21.707,21.707,0,0,0,0,43.407A21.525,21.525,0,0,0,42.583,69.7a21.945,21.945,0,0,0-1.652-8.38l-.563.554a4.19,4.19,0,0,1-2.954,1.216" transform="translate(0 -41.407)" fill="url(#linear-gradient)"></path><path id="Path_2043" data-name="Path 2043" d="M217.23,110.169l-.8.81a12.884,12.884,0,0,1,1.783,1.756l.4-.4a2.118,2.118,0,0,1,1.488-.611h.046l1.962.043a16.619,16.619,0,0,0-4.334-4.408l.058,1.22a2.118,2.118,0,0,1-.608,1.589" transform="translate(-187.244 -92.613)" fill="#fff"></path><path id="Path_2044" data-name="Path 2044" d="M161.357,133.706l-3.7,3.745-4.735,4.8a1.173,1.173,0,0,0,1.659,1.659l4.82-4.757,3.735-3.687a12.892,12.892,0,0,0-1.783-1.756" transform="translate(-132.057 -115.34)" fill="#fff"></path><path id="Path_2045" data-name="Path 2045" d="M238.926,7.136c-.021.023-.042.047-.066.069l-5.082,4.808a1.03,1.03,0,0,1-1.416-1.5l5.007-4.737L236.916,0l-10,9.525-1.064,1.014a1.862,1.862,0,0,0-.576,1.437l.132,2.771a16.616,16.616,0,0,1,4.334,4.408l2.685.058h.041a1.863,1.863,0,0,0,1.294-.523l1.143-1.1,10.249-9.9Z" transform="translate(-195.158)" fill="#fff"></path></g></svg> 