<?xml version="1.0" encoding="UTF-8"?> <svg xmlns="http://www.w3.org/2000/svg" xmlns:xlink="http://www.w3.org/1999/xlink" width="50" height="56.739" viewBox="0 0 50 56.739"><defs><clipPath id="clip-path"><rect id="Rectangle_1213" data-name="Rectangle 1213" width="50" height="56.739" fill="none"></rect></clipPath></defs><g id="Group_26672" data-name="Group 26672" transform="translate(0 0)"><g id="Group_26671" data-name="Group 26671" transform="translate(0 0)" clip-path="url(#clip-path)"><path id="Path_2072" data-name="Path 2072" d="M23.061,1.84c.408,0,.612.2,1.02.408-2.449,1.02-4.9,3.673-6.122,9.388l-4.49,1.224C14.9,8.779,17.755,1.84,23.061,1.84m2.245,2.041a14.231,14.231,0,0,1,.816,4.9v.408L20.2,10.82c1.224-4.286,3.265-6.122,5.1-6.939m5.306,3.673-2.653.816V7.759a14.026,14.026,0,0,0-.612-4.49c1.429.408,2.653,2.245,3.265,4.286M43.878,10.82a.439.439,0,0,0-.408-.408c-.408,0-4.694-.408-4.694-.408s-3.061-3.061-3.469-3.265c-.408-.408-1.02-.2-1.224-.2,0,0-.612.2-1.633.612-1.02-2.857-2.857-5.51-5.918-5.51h-.2A3.609,3.609,0,0,0,23.265,0c-7.347-.2-10.816,8.98-12.041,13.673-1.633.408-3.265,1.02-5.1,1.633-1.633.408-1.633.612-1.837,2.041C4.082,18.371,0,50.616,0,50.616l32.449,6.122L50,52.861S43.878,11.228,43.878,10.82" transform="translate(0 0.001)" fill="#fff"></path><path id="Path_2073" data-name="Path 2073" d="M26.716,7.08c-.2,0-4.49-.408-4.49-.408S19.165,3.61,18.757,3.406c-.2-.2-.2-.2-.408-.2L15.9,53.406l17.551-3.878S27.329,7.9,27.329,7.488c0-.2-.408-.408-.612-.408" transform="translate(16.549 3.333)" fill="#fff"></path><path id="Path_2074" data-name="Path 2074" d="M22.68,10.332l-2.245,6.531a9.677,9.677,0,0,0-4.286-1.02c-3.469,0-3.673,2.041-3.673,2.653,0,2.857,7.755,4.082,7.755,11.02,0,5.51-3.469,8.98-8.163,8.98A11.217,11.217,0,0,1,3.7,35.026l1.429-4.9s2.857,2.449,5.306,2.449a2.13,2.13,0,0,0,2.245-2.245c0-3.878-6.327-4.082-6.327-10.408,0-5.306,3.878-10.408,11.429-10.408,3.469-.2,4.9.816,4.9.816" transform="translate(3.851 9.877)" fill="#191f25"></path></g></g></svg> 