<?xml version="1.0" encoding="UTF-8"?> <svg xmlns="http://www.w3.org/2000/svg" xmlns:xlink="http://www.w3.org/1999/xlink" width="50" height="50" viewBox="0 0 50 50"><defs><linearGradient id="linear-gradient" x1="0.217" y1="0.858" x2="0.677" y2="0.5" gradientUnits="objectBoundingBox"><stop offset="0" stop-color="#40b4e5"></stop><stop offset="1" stop-color="#c2f"></stop></linearGradient></defs><g id="Group_26661" data-name="Group 26661" transform="translate(-152 -0.257)"><circle id="Ellipse_3" data-name="Ellipse 3" cx="25" cy="25" r="25" transform="translate(152 0.257)" fill="#fff"></circle><g id="Polygon_1" data-name="Polygon 1" transform="translate(192.5 9.757) rotate(90)" stroke-linecap="round" fill="url(#linear-gradient)"><path d="M 23.65498924255371 22.5 L 7.345009803771973 22.5 C 6.415019989013672 22.5 5.594260215759277 22.01239967346191 5.149479866027832 21.19565963745117 C 4.704689979553223 20.37892913818359 4.74036979675293 19.42491912841797 5.244919776916504 18.64369010925293 L 13.39990043640137 6.016609191894531 C 13.86931037902832 5.289779186248779 14.63477039337158 4.872929096221924 15.5 4.872929096221924 C 16.36523056030273 4.872929096221924 17.13068962097168 5.289779186248779 17.60009956359863 6.016609191894531 L 25.75507926940918 18.64369010925293 C 26.25963020324707 19.42491912841797 26.29530906677246 20.37892913818359 25.85051918029785 21.19565963745117 C 25.40574073791504 22.01239967346191 24.58498001098633 22.5 23.65498924255371 22.5 Z" stroke="none"></path><path d="M 15.5 6.372920989990234 C 15.29660987854004 6.372920989990234 14.91703033447266 6.432350158691406 14.65995979309082 6.830400466918945 L 6.504980087280273 19.45748138427734 C 6.224540710449219 19.89170074462891 6.360689163208008 20.28342056274414 6.466800689697266 20.47826957702637 C 6.572910308837891 20.67312049865723 6.828109741210938 21 7.345010757446289 21 L 23.65499114990234 21 C 24.17189025878906 21 24.42708969116211 20.67312049865723 24.53319931030273 20.4782600402832 C 24.63930892944336 20.28340911865234 24.77545928955078 19.89170074462891 24.49501991271973 19.45748138427734 L 16.34004974365234 6.830410003662109 C 16.08296966552734 6.432350158691406 15.70339012145996 6.372920989990234 15.5 6.372920989990234 M 15.5 3.3729248046875 C 16.78614234924316 3.3729248046875 18.07228469848633 3.982891082763672 18.86016082763672 5.20281982421875 L 27.01514053344727 17.82989883422852 C 28.73410987854004 20.49151992797852 26.82344055175781 24 23.65499114990234 24 L 7.345010757446289 24 C 4.176559448242188 24 2.265890121459961 20.49153137207031 3.984859466552734 17.82989883422852 L 12.13983917236328 5.20281982421875 C 12.92771530151367 3.982891082763672 14.21385765075684 3.3729248046875 15.5 3.3729248046875 Z" stroke="none" fill="#191e24"></path></g></g></svg> 