<?xml version="1.0" encoding="UTF-8"?> <svg xmlns="http://www.w3.org/2000/svg" xmlns:xlink="http://www.w3.org/1999/xlink" id="Group_26663" data-name="Group 26663" width="41.125" height="50" viewBox="0 0 41.125 50"><defs><linearGradient id="linear-gradient" x1="0.302" y1="0.294" x2="0.621" y2="0.708" gradientUnits="objectBoundingBox"><stop offset="0" stop-color="#40b4e5"></stop><stop offset="1" stop-color="#c2f"></stop></linearGradient></defs><g id="Group_26662" data-name="Group 26662"><path id="Path_2046" data-name="Path 2046" d="M18.977,67.332,17,57.724l-2.062,9.665A16.434,16.434,0,0,1,3.367,79.765L0,80.724l4.131,1.467A17.263,17.263,0,0,1,15.286,95.1L17,103.724l1.891-8.783A17.365,17.365,0,0,1,29.685,82.368L34,80.724l-4.147-1.317A16.067,16.067,0,0,1,18.977,67.332" transform="translate(0 -53.724)" fill="url(#linear-gradient)"></path><path id="Path_2047" data-name="Path 2047" d="M395.789,3.759,394.961,0,394.1,3.782a6.633,6.633,0,0,1-4.85,4.843L387.836,9l1.731.574a6.917,6.917,0,0,1,4.675,5.05L394.961,18l.792-3.437a6.953,6.953,0,0,1,4.524-4.92L402.086,9l-1.738-.515a6.462,6.462,0,0,1-4.558-4.725" transform="translate(-360.961)" fill="#fff"></path></g></svg> 