<?xml version="1.0" encoding="UTF-8"?> <svg xmlns="http://www.w3.org/2000/svg" xmlns:xlink="http://www.w3.org/1999/xlink" id="Group_26691" data-name="Group 26691" width="50" height="53.954" viewBox="0 0 50 53.954"><defs><clipPath id="clip-path"><rect id="Rectangle_1259" data-name="Rectangle 1259" width="50" height="53.954" fill="#fff"></rect></clipPath><linearGradient id="linear-gradient" x1="0.584" x2="0.253" y2="0.95" gradientUnits="objectBoundingBox"><stop offset="0" stop-color="#40b4e5"></stop><stop offset="1" stop-color="#c2f"></stop></linearGradient></defs><g id="Group_26691-2" data-name="Group 26691" clip-path="url(#clip-path)"><path id="Path_2110" data-name="Path 2110" d="M45.041,0H4.95A4.959,4.959,0,0,0,0,4.95V36.106a4.959,4.959,0,0,0,4.95,4.95H9.405l2.565-2.565H4.95a2.387,2.387,0,0,1-2.385-2.386V12.491h44.87V36.106a2.394,2.394,0,0,1-2.394,2.386H37.5l2.565,2.565h4.976A4.961,4.961,0,0,0,50,36.106V4.95A4.961,4.961,0,0,0,45.041,0M6.431,7.8H6.037a1.556,1.556,0,1,1,0-3.112h.394a1.556,1.556,0,1,1,0,3.112m5.347,0h-.394a1.556,1.556,0,1,1,0-3.112h.394a1.556,1.556,0,0,1,0,3.112m5.337,0H16.73a1.556,1.556,0,1,1,0-3.112h.384a1.556,1.556,0,1,1,0,3.112m26.723-.168H34.446a1.388,1.388,0,0,1,0-2.776h9.392a1.388,1.388,0,1,1,0,2.776" fill="#fff"></path><rect id="Rectangle_1257" data-name="Rectangle 1257" width="8.404" height="8.222" transform="translate(27.078 43.579) rotate(-45)" fill="#fff"></rect><path id="Path_2111" data-name="Path 2111" d="M177.457,224.443a7.238,7.238,0,0,0-.874-1.773l-5.729,5.729a7.182,7.182,0,0,0,1.772.876l5.386,1.753a.956.956,0,0,0,1.206-1.206Z" transform="translate(-136.041 -177.299)" fill="#fff"></path><path id="Path_2112" data-name="Path 2112" d="M36.985,85.653,33.83,88.808a1.961,1.961,0,0,0,0,2.779l1.6,1.6,5.934-5.934-1.6-1.6a1.961,1.961,0,0,0-2.779,0" transform="translate(-26.477 -67.741)" fill="#fff"></path><rect id="Rectangle_1258" data-name="Rectangle 1258" width="8.391" height="8.786" transform="translate(10.767 27.26) rotate(-44.998)" fill="#fff"></rect><path id="Path_2113" data-name="Path 2113" d="M49.444,104.754a1.282,1.282,0,0,1,1.813,0l1.931,1.931L54.871,105l-1.931-1.931a1.282,1.282,0,0,1,1.814-1.813l1.93,1.931,1.682-1.682-3.372-3.372a1.283,1.283,0,0,1,1.813-1.814l3.372,3.372,1.681-1.681-1.931-1.931a1.283,1.283,0,0,1,1.814-1.814L63.675,96.2l1.682-1.682-1.931-1.931a1.282,1.282,0,0,1,1.813-1.814L67.17,92.7l1.622-1.622a1.366,1.366,0,0,0,0-1.933l-4.537-4.537a1.367,1.367,0,0,0-1.933,0L32.8,114.136a1.366,1.366,0,0,0,0,1.932l4.537,4.538a1.367,1.367,0,0,0,1.933,0l1.622-1.622-1.93-1.931a1.282,1.282,0,0,1,1.813-1.814l1.93,1.931,1.682-1.682-1.931-1.931a1.282,1.282,0,1,1,1.814-1.813l1.931,1.931,1.682-1.682-3.372-3.372a1.282,1.282,0,1,1,1.813-1.814l3.372,3.372,1.682-1.682-1.931-1.931a1.282,1.282,0,0,1,0-1.813" transform="translate(-25.796 -67.052)" fill="url(#linear-gradient)"></path></g></svg> 