<?xml version="1.0" encoding="UTF-8"?> <svg xmlns="http://www.w3.org/2000/svg" xmlns:xlink="http://www.w3.org/1999/xlink" id="Group_26674" data-name="Group 26674" width="50" height="50" viewBox="0 0 50 50"><defs><clipPath id="clip-path"><rect id="Rectangle_1214" data-name="Rectangle 1214" width="50" height="50" fill="#fff"></rect></clipPath></defs><g id="Group_26673" data-name="Group 26673" clip-path="url(#clip-path)"><path id="Path_2075" data-name="Path 2075" d="M3.531,25A21.344,21.344,0,0,0,15.563,44.294L5.434,16.3a21.761,21.761,0,0,0-1.9,8.7m35.961-1.087a11.041,11.041,0,0,0-1.812-5.888c-1.087-1.812-2.083-3.261-2.083-5.072a3.733,3.733,0,0,1,3.625-3.8h.272A21.133,21.133,0,0,0,25,3.531,21.8,21.8,0,0,0,7.066,13.223H8.425c2.266,0,5.706-.272,5.706-.272a.913.913,0,0,1,.181,1.813,18.223,18.223,0,0,1-2.445.181l7.791,23.188,4.709-14.041-3.352-9.148-2.266-.178a.909.909,0,0,1,.091-1.812s3.531.272,5.616.272c2.266,0,5.706-.272,5.706-.272a.913.913,0,0,1,.181,1.813,18.223,18.223,0,0,1-2.445.181l7.789,23.1,2.188-7.156c.906-2.989,1.63-5.072,1.63-6.975ZM25.363,26.9,18.931,45.563A22.324,22.324,0,0,0,25,46.469a23.7,23.7,0,0,0,7.156-1.178c-.091-.091-.091-.181-.181-.272ZM43.841,14.766l.181,2.188a19.546,19.546,0,0,1-1.63,7.7L35.87,43.584A21.506,21.506,0,0,0,46.558,25.016a22.927,22.927,0,0,0-2.719-10.234ZM25,0A25,25,0,1,0,50,25,25.049,25.049,0,0,0,25,0m0,48.913A23.867,23.867,0,1,1,48.822,25,23.87,23.87,0,0,1,25,48.913" fill="#fff"></path></g></svg> 