<svg xmlns="http://www.w3.org/2000/svg" width="36.579" height="38.141" viewBox="0 0 36.579 38.141">
  <g id="night" transform="translate(-126.71 -207.999)">
    <path id="moon" d="M33.415,11.148l-.744-1.891a.782.782,0,0,0-1.456,0l-.744,1.891a2.343,2.343,0,0,1-1.322,1.322l-1.891.744a.782.782,0,0,0,0,1.456l1.891.744a2.343,2.343,0,0,1,1.322,1.322l.744,1.891a.782.782,0,0,0,1.456,0l.744-1.891a2.343,2.343,0,0,1,1.322-1.322l1.891-.744a.782.782,0,0,0,0-1.456l-1.891-.744A2.343,2.343,0,0,1,33.415,11.148Zm1.466,14.357A15.476,15.476,0,0,1,16.905,3.47a2.388,2.388,0,0,0-3.023-3.3,19.645,19.645,0,1,0,23.635,28.9,2.382,2.382,0,0,0-2.637-3.562Z" transform="translate(125.4 207.999)" fill="#fff"/>
  </g>
</svg>
