<svg xmlns="http://www.w3.org/2000/svg" width="46.865" height="38.853" viewBox="0 0 46.865 38.853">
  <g id="slide" transform="translate(-121.568 -208.147)">
    <g id="Slides" transform="translate(121.568 164.382)">
      <path id="Caminho_2284" data-name="Caminho 2284" d="M31.849,192.391H1.373A1.373,1.373,0,0,0,0,193.764v22.5a1.373,1.373,0,0,0,1.373,1.373H31.849a1.373,1.373,0,0,0,1.373-1.373v-22.5A1.373,1.373,0,0,0,31.849,192.391Z" transform="translate(0 -135.022)" fill="#fff"/>
      <path id="Caminho_2285" data-name="Caminho 2285" d="M106.229,118.435H75.753a1.372,1.372,0,0,0-1.373,1.373v2.651h27.787a1.373,1.373,0,0,1,1.373,1.373v19.852h2.688a1.372,1.372,0,0,0,1.373-1.373v-22.5A1.372,1.372,0,0,0,106.229,118.435Z" transform="translate(-67.572 -67.835)" fill="#fff"/>
      <path id="Caminho_2286" data-name="Caminho 2286" d="M180.89,43.765H150.413a1.373,1.373,0,0,0-1.373,1.373v2.716H176.8a1.372,1.372,0,0,1,1.373,1.373V69.013h2.716a1.373,1.373,0,0,0,1.373-1.373v-22.5A1.373,1.373,0,0,0,180.89,43.765Z" transform="translate(-135.398)" fill="#fff"/>
    </g>
  </g>
</svg>
