<svg xmlns="http://www.w3.org/2000/svg" width="35.096" height="37.65" viewBox="0 0 35.096 37.65">
  <g id="doc_02" data-name="doc 02" transform="translate(-127.452 -221.624)">
    <g id="file" transform="translate(109.152 220.616)">
      <g id="Grupo_26781" data-name="Grupo 26781" transform="translate(18.3 1.008)">
        <path id="Caminho_2407" data-name="Caminho 2407" d="M50.6,13.938V8.875A.44.44,0,0,0,50.49,8.6L43.015,1.122a.445.445,0,0,0-.278-.114H23.43a2.345,2.345,0,0,0-2.341,2.341V8.922A3.293,3.293,0,0,0,18.3,12.173V35.391a3.27,3.27,0,0,0,3.267,3.267H50.13A3.272,3.272,0,0,0,53.4,35.391V17.186A3.292,3.292,0,0,0,50.6,13.938ZM49.228,33.022A1.875,1.875,0,0,1,47.353,34.9h-13a1.875,1.875,0,0,1-1.875-1.875v-4.6a1.875,1.875,0,0,1,1.875-1.875h13a1.875,1.875,0,0,1,1.875,1.875ZM49.82,13.9H36.846a2.5,2.5,0,0,1-2.283-1.467l-.9-1.757a3.284,3.284,0,0,0-2.934-1.792H21.873V3.349A1.558,1.558,0,0,1,23.43,1.792H42.345V6.926A2.346,2.346,0,0,0,44.69,9.267h5.13Z" transform="translate(-18.3 -1.008)" fill="#fff"/>
      </g>
    </g>
  </g>
</svg>
