<svg xmlns="http://www.w3.org/2000/svg" width="41.155" height="27.768" viewBox="0 0 41.155 27.768">
  <g id="email" transform="translate(-124.422 -210.508)">
    <path id="mail_10333855" d="M41.028,68.466a1.509,1.509,0,0,1,.117.581V93.823a1.478,1.478,0,0,1-.056.4L27.19,81.314Zm-1.38-.915H1.486a1.5,1.5,0,0,0-.454.071L19.549,84.815a1.486,1.486,0,0,0,2.037,0L40.1,67.622a1.493,1.493,0,0,0-.455-.071ZM.045,94.22a1.459,1.459,0,0,1-.055-.4V69.047a1.484,1.484,0,0,1,.118-.581L13.945,81.314Zm.8.954a1.486,1.486,0,0,0,.637.145H39.648a1.482,1.482,0,0,0,.636-.145L26.274,82.165l-3.84,3.564a2.752,2.752,0,0,1-3.733,0l-3.839-3.564Z" transform="translate(124.432 142.957)" fill="#fff" fill-rule="evenodd"/>
  </g>
</svg>
