<svg xmlns="http://www.w3.org/2000/svg" width="30.5" height="37.809" viewBox="0 0 30.5 37.809">
  <g id="pillar_01" data-name="pillar 01" transform="translate(-126 -217.315)">
    <g id="Pillar" transform="translate(126 217.315)">
      <g id="_411207672">
        <g id="Grupo_26771" data-name="Grupo 26771" transform="translate(7.287)">
          <path id="Caminho_2387" data-name="Caminho 2387" d="M548.154,448v17.963a1.078,1.078,0,0,0-.266-.022h-4.12V448h4.386Zm-5.205,0v17.941h-3.743V448Zm-4.563,0v17.941h-4.12a1.078,1.078,0,0,0-.266.022V448h4.386Z" transform="translate(-529.459 -438.077)" fill="#fff"/>
          <path id="Caminho_2388" data-name="Caminho 2388" d="M461.837,267.256H448.215A2.2,2.2,0,0,1,446,265.063V264h18.03v1.063A2.184,2.184,0,0,1,461.837,267.256Z" transform="translate(-443.409 -258.152)" fill="#fff"/>
          <path id="Caminho_2389" data-name="Caminho 2389" d="M331.525,0H349.71a2.571,2.571,0,0,1,1.772.731,2.491,2.491,0,0,1,.731,1.794,2.5,2.5,0,0,1-2.5,2.5H331.525a2.439,2.439,0,0,1-1.772-.731,2.487,2.487,0,0,1,0-3.566A2.531,2.531,0,0,1,331.525,0Z" transform="translate(-329)" fill="#fff"/>
        </g>
        <g id="Grupo_26774" data-name="Grupo 26774">
          <g id="Grupo_26772" data-name="Grupo 26772">
            <path id="Caminho_2390" data-name="Caminho 2390" fill="#fff" fill-rule="evenodd"/>
          </g>
          <g id="Grupo_26773" data-name="Grupo 26773">
            <path id="Caminho_2391" data-name="Caminho 2391" fill="#fff" fill-rule="evenodd"/>
          </g>
        </g>
        <path id="Caminho_2392" data-name="Caminho 2392" d="M448.215,1295h13.622a2.2,2.2,0,0,1,2.193,2.215v1.041H446v-1.041A2.221,2.221,0,0,1,448.215,1295Z" transform="translate(-436.121 -1266.316)" fill="#fff"/>
        <path id="Caminho_2393" data-name="Caminho 2393" d="M349.71,1484.05H331.525a2.525,2.525,0,0,1,0-5.05H349.71a2.5,2.5,0,0,1,1.772.753,2.513,2.513,0,0,1,0,3.544A2.5,2.5,0,0,1,349.71,1484.05Z" transform="translate(-321.713 -1446.241)" fill="#fff"/>
      </g>
    </g>
  </g>
</svg>
